<mxfile host="app.diagrams.net" modified="2022-04-19T05:39:56.488Z" agent="5.0 (Linux; Android 11; SM-A125F) AppleWebKit/537.36 (KHTML, like Gecko) Chrome/100.0.4896.88 Mobile Safari/537.36" etag="vACnmRH5SUOHAZqcVkQA" version="17.4.5" type="github">
  <diagram id="6a731a19-8d31-9384-78a2-239565b7b9f0" name="Page-1">
    <mxGraphModel dx="875" dy="1605" grid="1" gridSize="10" guides="1" tooltips="1" connect="1" arrows="1" fold="1" page="1" pageScale="1" pageWidth="1169" pageHeight="827" background="none" math="0" shadow="0">
      <root>
        <mxCell id="0" />
        <mxCell id="1" parent="0" />
        <mxCell id="yIBhoUGtHqizArOVRAcj-146" value="" style="rounded=1;whiteSpace=wrap;html=1;hachureGap=4;" vertex="1" parent="1">
          <mxGeometry x="365" y="340" width="390" height="130" as="geometry" />
        </mxCell>
        <mxCell id="yIBhoUGtHqizArOVRAcj-148" value="" style="rounded=0;whiteSpace=wrap;html=1;hachureGap=4;" vertex="1" parent="1">
          <mxGeometry x="420" y="70" width="280" height="80" as="geometry" />
        </mxCell>
        <mxCell id="yIBhoUGtHqizArOVRAcj-149" value="" style="rounded=0;whiteSpace=wrap;html=1;hachureGap=4;" vertex="1" parent="1">
          <mxGeometry x="420" y="200" width="280" height="80" as="geometry" />
        </mxCell>
      </root>
    </mxGraphModel>
  </diagram>
</mxfile>
